<svg width="16" height="16" viewBox="0 0 16 16" fill="none" xmlns="http://www.w3.org/2000/svg">
<g id="Huge-icon/arrows/solid/reload">
<g id="reload">
<path id="Vector (Stroke)" fill-rule="evenodd" clip-rule="evenodd" d="M9.72667 0.866176C9.9847 0.767823 10.2736 0.897269 10.372 1.1553L11.1574 3.21581C11.2329 3.41403 11.1752 3.63834 11.0133 3.77544C10.8514 3.91254 10.6207 3.93257 10.4376 3.82541C9.72237 3.4068 8.88997 3.16672 7.99999 3.16672C5.33061 3.16672 3.16666 5.33068 3.16666 8.00005C3.16666 8.88124 3.40201 9.70595 3.81296 10.4164C3.95124 10.6554 3.86955 10.9613 3.63052 11.0995C3.39149 11.2378 3.08563 11.1561 2.94736 10.9171C2.45073 10.0586 2.16666 9.06173 2.16666 8.00005C2.16666 4.77839 4.77833 2.16672 7.99999 2.16672C8.62572 2.16672 9.22892 2.2654 9.79456 2.44811L9.43754 1.51147C9.33919 1.25344 9.46863 0.96453 9.72667 0.866176ZM12.3695 4.90058C12.6085 4.76231 12.9143 4.84399 13.0526 5.08302C13.5492 5.94154 13.8333 6.93838 13.8333 8.00005C13.8333 11.2217 11.2217 13.8334 7.99999 13.8334C7.37425 13.8334 6.77105 13.7347 6.20541 13.552L6.56244 14.4886C6.66079 14.7467 6.53135 15.0356 6.27332 15.1339C6.01528 15.2323 5.72637 15.1028 5.62802 14.8448L4.8426 12.7843C4.76704 12.5861 4.82479 12.3618 4.98666 12.2247C5.14854 12.0876 5.3793 12.0675 5.56238 12.1747C6.2776 12.5933 7.11 12.8334 7.99999 12.8334C10.6694 12.8334 12.8333 10.6694 12.8333 8.00005C12.8333 7.11886 12.598 6.29416 12.187 5.58375C12.0487 5.34472 12.1304 5.03886 12.3695 4.90058Z" fill="#28303F"/>
</g>
</g>
</svg>
